# xmcd
#
# Track frame offsets:
#	150
#	20397
#	43162
#	64245
#	84070
#	103850
#	121852
#	138410
#	156097
#	177990
#
# Disc length: 2765 seconds
#
# Revision: 6
# Processed by: cddbd v1.5.2PL0 Copyright (c) Steve Scherf et al.
# Submitted via: EZCDAudioConverter 8.0.2.1
#
DISCID=7d0acb0a
DTITLE=Various Artist - Top Hits 13. Nổi Đau Người Để Lại
DYEAR=2002
DGENRE=
TTITLE0=Nguyễn Hưng, Thủy Tiên - Lạc lối
TTITLE1=Don Hồ, Lương Tùng - Nổi Đau Người Để Lại
TTITLE2=Bảo Hân, Lay Minh - Khúc biệt ly
TTITLE3=Minh Tuyết - Trái tim lỡ lầm
TTITLE4=Quốc Hùng, Ngọc Ánh - Ai sẽ biết trước
TTITLE5=Lynnda Trang Đài, Tommy Ngô - Lời anh hứa
TTITLE6=Trúc Linh, Trúc Lam - Đường vào tình yêu
TTITLE7=Thế Sơn - Yêu và ảo mộng
TTITLE8=Thủy Tiên - Mai này nắng lên
TTITLE9=Loan Châu, Bảo Hân, Trúc Linh - Chồng sớm
EXTD=
EXTT0=
EXTT1=
EXTT2=
EXTT3=
EXTT4=
EXTT5=
EXTT6=
EXTT7=
EXTT8=
EXTT9=
PLAYORDER=
